<svg width="22" height="22" viewBox="0 0 22 22" fill="none" xmlns="http://www.w3.org/2000/svg">
<circle cx="11" cy="11" r="11" fill="white"/>
<path fill-rule="evenodd" clip-rule="evenodd" d="M11.0005 12.3149L13.5898 14.8099C13.8496 15.0621 14.0186 15.0647 14.2831 14.8099L14.8026 14.3092C15.0571 14.064 15.0744 13.9031 14.8026 13.6412L12.0613 11.0001L14.8028 8.35901C15.0596 8.11078 15.0646 7.94326 14.8028 7.6908L14.2833 7.19034C14.0138 6.93059 13.8473 6.94259 13.5901 7.19034L11.0005 9.68532L8.4112 7.19058C8.15394 6.94282 7.98744 6.93082 7.71793 7.19058L7.19842 7.69103C6.93641 7.9435 6.94116 8.11102 7.19842 8.35925L9.93973 11.0001L7.19842 13.6412C6.92666 13.9031 6.94116 14.064 7.19842 14.3092L7.71768 14.8099C7.97994 15.0647 8.14894 15.0621 8.41095 14.8099L11.0005 12.3149V12.3149Z" fill="#B5B5B5"/>
</svg>
