<svg width="26" height="26" viewBox="0 0 26 26" fill="none" xmlns="http://www.w3.org/2000/svg">
<rect width="26" height="26" rx="2" fill="#48CA5C"/>
<path d="M17.1347 8.30443C17.3421 8.10701 17.618 7.99787 17.9043 8.00003C18.1906 8.0022 18.4649 8.1155 18.6692 8.31604C18.8736 8.51657 18.992 8.78865 18.9996 9.07486C19.0072 9.36108 18.9033 9.63903 18.7098 9.85009L12.8363 17.1957C12.7353 17.3044 12.6134 17.3917 12.4779 17.4523C12.3424 17.5129 12.196 17.5456 12.0476 17.5483C11.8992 17.5511 11.7518 17.5239 11.6141 17.4683C11.4765 17.4128 11.3514 17.3301 11.2465 17.2251L7.35139 13.33C7.24292 13.229 7.15592 13.1071 7.09558 12.9716C7.03523 12.8362 7.00279 12.69 7.00017 12.5418C6.99756 12.3935 7.02483 12.2463 7.08035 12.1088C7.13588 11.9713 7.21853 11.8465 7.32337 11.7416C7.42821 11.6368 7.55309 11.5541 7.69056 11.4986C7.82803 11.4431 7.97528 11.4158 8.12352 11.4184C8.27176 11.421 8.41796 11.4535 8.55338 11.5138C8.68881 11.5742 8.8107 11.6612 8.91177 11.7697L11.9943 14.8507L17.1067 8.33681C17.1159 8.32548 17.1243 8.31467 17.1347 8.30443Z" fill="white"/>
</svg>
